# xmcd CD database file
#
# Track frame offsets:
#	150
#	15781
#	30431
#	41343
#	55272
#	67237
#	82437
#	97052
#	111554
#	125165
#	138869
#	153147
#	167692
#	179849
#	194724
#	208926
#	223290
#	237395
#	250822
#	266427
#	280350
#	293285
#	306158
#	320199
#	333755
#
# Disc length: 4583 seconds
#
# Revision: 2
# Processed by: cddbd v1.5.2PL0 Copyright (c) Steve Scherf et al.
# Submitted via: CDex 1.70beta2
#
DISCID=8711e519
DTITLE=Diverse - Jazz In The Charts 53-100 - 1940 - WAV
DYEAR=1940
DGENRE=Jazz
TTITLE0=Larry Clinton and His Orchestra - Johnson Rag 
TTITLE1=Benny Goodman and His Orchestra - Bluebirds In The Moonlight 
TTITLE2=Harry James and His Orchestra with Frank Sinatra - Ciribiribin 
TTITLE3=Glenn Miller and His Orchestra - Careless 
TTITLE4=Glenn Miller and His Orchestra - This Changing World 
TTITLE5=Jimmy Dorsey and His Orchestra - On A Little Street In Singapore 
TTITLE6=Artie Shaw and His Orchestra - All The Things You Are 
TTITLE7=Woody Herman and His Orchestra - Blues On Parade
TTITLE8=Benny Goodman and His Orchestra - Darn That Dream 
TTITLE9=Coleman Hawkins and His Orchestra - Body And Soul
TTITLE10=Glenn Miller and His Orchestra -The Gaucho Serenade
TTITLE11=Tommy Dorsey and His Orchestra - The Starlit Hour 
TTITLE12=Glenn Miller and His Orchestra - Vagabond Dreams 
TTITLE13=Glenn Miller and His Orchestra - Indian Summer 
TTITLE14=Tommy Dorsey and His Orchestra - Angel 
TTITLE15=Glenn Miller and His Orchestra - In An Old Dutch Garden (By An Old Dutch Mill) 
TTITLE16=Tommy Dorsey and His Orchestra - I've Got My Eyes On You 
TTITLE17=Charlie Barnet and His Orchestra - Between 18th And 19th On Chestnut Street 
TTITLE18=Glenn Miller and His Orchestra - Tuxedo Junction
TTITLE19=Benny Goodman and His Orchestra - What's The Matter With Me? 
TTITLE20=Glenn Miller and His Orchestra - When You Wish Upon A Star 
TTITLE21=Glenn Miller and His Orchestra - Ooh! What You Said 
TTITLE22=Bob Crosby and His Orchestra - With The Wind And The Rain In Your Hair 
TTITLE23=Bob Crosby and His Orchestra - Leanin' On The Ole Top Rail
TTITLE24=Glenn Miller and His Orchestra - Danny Boy (Londonderry Air)
EXTD=YEAR: 1940
EXTT0=
EXTT1=
EXTT2=
EXTT3=
EXTT4=
EXTT5=
EXTT6=
EXTT7=
EXTT8=
EXTT9=
EXTT10=
EXTT11=
EXTT12=
EXTT13=
EXTT14=
EXTT15=
EXTT16=
EXTT17=
EXTT18=
EXTT19=
EXTT20=
EXTT21=
EXTT22=
EXTT23=
EXTT24=
PLAYORDER=
